Transformers.Dark.Of.The.Moon.BRRip.XviD-RLF
                                            

General:

Complete name                    : rlf-trans3.avi
Format                           : AVI
Format/Info                      : Audio Video Interleave
File size                        : 1.36 GiB
Duration                         : 2h 34mn
Overall bit rate                 : 1 260 Kbps
Language                         : English
Subs                             : Polish , English
Encoder                          : Ralf

Video:

Format                           : MPEG-4 Visual
Format profile                   : Advanced Simple@L5
Format settings, BVOP            : 2
Format settings, QPel            : No
Format settings, GMC             : No warppoints
Format settings, Matrix          : H.263
Muxing mode                      : Packed bitstream
Codec ID                         : XVID
Duration                         : 2h 34mn
Bit rate                         : 1 119 Kbps
Width                            : 688 pixels
Height                           : 288 pixels
Display aspect ratio             : 2.35:1
Frame rate                       : 23.976 fps
Color space                      : YUV
Chroma subsampling               : 4:2:0
Bit depth                        : 8 bits
Scan type                        : Progressive
Bits/(Pixel*Frame)               : 0.236
Stream size                      : 1.21 GiB (89%)

Audio:

Format                           : MPEG Audio
Format profile                   : Layer 3
Codec ID/Hint                    : MP3
Duration                         : 2h 34mn
Bit rate mode                    : Constant
Bit rate                         : 128 Kbps
Channel(s)                       : 2 channels
Sampling rate                    : 48.0 KHz
Stream size                      : 141 MiB (10%)
Alignment                        : Split accross interleaves
Interleave, duration             : 24 ms (0.58 video frame)


MOVIE INFO:

The Autobots learn of a Cybertronian spacecraft hidden on the Moon, and race 
against the Decepticons to reach it and to learn its secrets.
                                
http://www.imdb.com/title/tt1399103/
                   
                                               
SOURCE:

MHD 720p.BluRay.x264 (THX)

SCREENS:
 
http://www.postimg.com/50000/photo-49217.jpg 
http://www.postimg.com/50000/photo-49218.jpg 
http://www.postimg.com/50000/photo-49219.jpg 
http://www.postimg.com/50000/photo-49220.jpg


Polish version is coming but since i have this nice rip in English i 
decided to released it. Now everybody can enjoy it.